<svg width="50" height="47" viewBox="0 0 50 47" fill="none" xmlns="http://www.w3.org/2000/svg">
<path d="M12.4609 26.0546H3.39843C1.47265 26.0546 0 27.5272 0 29.453V43.0467C0 44.9725 1.47265 46.4452 3.39843 46.4452H10.1953C11.8945 46.4452 13.3671 45.5389 14.1601 44.1795C14.4999 44.5194 14.9531 44.7459 15.4062 44.8592C15.9726 45.0858 16.6523 45.1991 17.332 45.1991C17.4453 45.1991 17.5585 45.1991 17.7851 45.1991C18.2382 45.1991 29.3397 44.4061 33.1913 44.0663C37.3827 43.6131 41.8006 42.367 46.6717 40.2147L48.5975 39.4217C49.7303 38.9686 50.2967 37.6092 49.8436 36.4764C49.1639 34.8905 47.578 33.871 46.1053 34.0975C44.9725 34.2108 43.3866 34.5507 41.5741 34.8905C36.703 35.5702 27.5272 37.3827 26.0546 35.7967C26.9608 35.0038 27.1874 33.4179 27.1874 32.8514C27.1874 30.0194 25.0351 28.3202 21.5234 28.3202H14.7265C14.7265 27.0741 13.707 26.0546 12.4609 26.0546ZM12.4609 41.9139C12.4609 43.16 11.4414 44.1795 10.1953 44.1795H3.39843C2.71874 44.1795 2.26562 43.7264 2.26562 43.0467V29.453C2.26562 28.7733 2.71874 28.3202 3.39843 28.3202H12.4609V30.5858V33.9843V36.2499V40.6678V41.9139ZM21.5234 30.5858C24.9218 30.5858 24.9218 32.285 24.9218 32.8514C24.9218 33.078 24.6952 33.7577 24.5819 33.9843C21.1835 34.0975 19.7109 33.871 19.2577 33.6444C19.1445 33.1913 18.6913 32.8514 18.1249 32.8514C17.4453 32.8514 16.9921 33.3046 16.9921 33.9843C16.9921 34.4374 17.2187 34.8905 17.5585 35.2303C17.8984 35.5702 18.6913 36.2499 22.6562 36.2499C22.996 36.2499 23.3359 36.2499 23.789 36.2499C23.9023 36.703 24.1288 37.0428 24.3554 37.2694C26.5077 39.535 33.078 38.5155 41.5741 36.9296C43.3866 36.5897 44.9725 36.2499 45.992 36.1366C46.6717 36.0233 47.1248 36.5897 47.3514 37.1561L45.4256 37.9491C40.7811 39.9881 36.5897 41.2342 32.6249 41.6874C28.8866 42.1405 17.4453 42.8202 17.332 42.8202C16.8788 42.8202 16.4257 42.8202 16.0859 42.5936H15.9726C15.0664 42.2538 14.6132 41.4608 14.6132 40.5545V36.2499V33.9843V30.5858H21.5234Z" fill="#8CBC43"/>
<path d="M32.6249 15.5195V19.371C32.1718 19.2578 31.7186 19.0312 31.1522 18.8046C30.5858 18.5781 29.9061 18.8046 29.6796 19.371C29.453 19.9374 29.6796 20.6171 30.246 20.8437C31.039 21.2968 31.9452 21.5234 32.7382 21.6367V24.582C32.7382 25.1484 33.3046 25.7148 33.871 25.7148C34.5507 25.7148 35.0038 25.1484 35.0038 24.582V21.8632C36.3632 21.7499 37.3827 21.0703 37.9491 20.0507C38.8553 18.2382 37.6092 15.7461 35.0038 14.1601V10.1953C35.3436 10.3086 35.6835 10.4219 36.0233 10.6484C36.5897 10.875 37.2694 10.6484 37.496 10.082C37.7225 9.51561 37.496 8.83592 36.9296 8.60936C36.2499 8.26952 35.5702 8.04295 34.8905 7.92967V5.09765C34.8905 4.41797 34.3241 3.96484 33.7577 3.96484C33.078 3.96484 32.6249 4.53125 32.6249 5.09765V7.58983C32.6249 7.58983 32.6249 7.58983 32.5116 7.58983C30.9257 7.70311 29.7929 8.26952 29.2265 9.40232C28.6601 10.5351 28.8866 11.7812 29.7929 13.1406C30.4726 13.9336 31.4921 14.8398 32.6249 15.5195ZM35.7968 19.1445C35.6835 19.371 35.3436 19.5976 34.8905 19.5976V17.1054C35.6835 17.8984 36.0233 18.6914 35.7968 19.1445ZM31.2655 10.3086C31.3788 9.96873 31.9452 9.85545 32.6249 9.74217V12.6875C32.285 12.3476 31.9452 12.0078 31.7186 11.6679C31.2655 11.2148 31.039 10.6484 31.2655 10.3086Z" fill="#8CBC43"/>
<path d="M33.9843 29.453C42.1405 29.453 48.7108 22.8827 48.7108 14.7265C48.7108 6.57029 42.1405 0 33.9843 0C25.828 0 19.2578 6.57029 19.2578 14.7265C19.2578 22.8827 25.828 29.453 33.9843 29.453ZM33.9843 2.26562C40.8944 2.26562 46.4452 7.81638 46.4452 14.7265C46.4452 21.6366 40.8944 27.1874 33.9843 27.1874C27.0741 27.1874 21.5234 21.6366 21.5234 14.7265C21.5234 7.81638 27.0741 2.26562 33.9843 2.26562Z" fill="#8CBC43"/>
<path d="M9.0625 37.3827C8.38281 37.3827 7.92969 37.8358 7.92969 38.5155V40.7811C7.92969 41.4608 8.38281 41.9139 9.0625 41.9139C9.74218 41.9139 10.1953 41.4608 10.1953 40.7811V38.5155C10.1953 37.8358 9.74218 37.3827 9.0625 37.3827Z" fill="#8CBC43"/>
</svg>
