<svg width="50" height="51" viewBox="0 0 50 51" fill="none" xmlns="http://www.w3.org/2000/svg">
<path d="M49.1667 28.4294H46.6667V17.5961C46.6667 17.0961 46.3333 16.7628 45.8333 16.7628H43.3333V12.5961C43.3333 12.0961 43 11.7628 42.5 11.7628H32.4167C32 6.17942 27.3333 1.76276 21.6667 1.76276C16 1.76276 11.3333 6.17942 10.9167 11.7628H2.75C1.91667 11.7628 1.08333 12.1794 0.583333 12.9294C0.166667 13.5961 0 14.3461 0 15.0961V45.9294C0 48.2628 1.83333 50.0961 4.16667 50.0961H45.8333C46.3333 50.0961 46.6667 49.7628 46.6667 49.2628V38.4294H49.1667C49.6667 38.4294 50 38.0961 50 37.5961V29.2628C50 28.7628 49.6667 28.4294 49.1667 28.4294ZM41.6667 16.7628H31.6667C32.0833 15.6794 32.3333 14.5961 32.4167 13.4294H41.6667V16.7628ZM21.6667 3.42942C26.75 3.42942 30.8333 7.51276 30.8333 12.5961C30.8333 14.0961 30.5 15.5128 29.8333 16.7628H24.4167C24.4167 16.6794 24.5 16.5961 24.5 16.5961C24.9167 15.7628 24.75 14.8461 24.0833 13.8461C23.6667 13.2628 23.0833 12.6794 22.3333 12.2628V9.34609C22.5833 9.42942 22.8333 9.51276 23.0833 9.67942C23.5 9.84609 24 9.67942 24.1667 9.26276C24.3333 8.84609 24.1667 8.34609 23.75 8.17942C23.25 7.92942 22.75 7.76276 22.25 7.67942V5.59609C22.25 5.17942 21.8333 4.76276 21.4167 4.76276C20.9167 4.76276 20.5833 5.17942 20.5833 5.59609V7.42942C19.4167 7.42942 18.5 7.92942 18.0833 8.76276C17.6667 9.59609 17.8333 10.5128 18.5 11.5128C19 12.1794 19.75 12.8461 20.5833 13.3461V16.1794C20.25 16.0961 19.9167 15.9294 19.5 15.7628C19.0833 15.5961 18.5833 15.7628 18.4167 16.1794C18.3333 16.4294 18.3333 16.6794 18.4167 16.9294H13.4167C12.75 15.6794 12.4167 14.3461 12.4167 12.8461V12.5961C12.5833 7.42942 16.6667 3.42942 21.6667 3.42942ZM23 15.8461C22.9167 16.0128 22.6667 16.0961 22.3333 16.1794V14.3461C22.5 14.5128 22.5833 14.6794 22.75 14.7628C23 15.1794 23.1667 15.5961 23 15.8461ZM20.6667 11.1794C20.4167 10.9294 20.1667 10.6794 19.9167 10.4294C19.5833 10.0128 19.5 9.59609 19.5833 9.42942C19.6667 9.17942 20.0833 9.09609 20.5833 9.01276L20.6667 11.1794ZM2 13.8461C2.16667 13.5961 2.41667 13.4294 2.75 13.4294H10.9167C11 14.5961 11.25 15.6794 11.6667 16.7628H2.75C2.41667 16.7628 2.16667 16.5961 2 16.3461C1.75 16.0128 1.66667 15.5128 1.66667 15.0961C1.66667 14.6794 1.75 14.1794 2 13.8461ZM45 48.4294H4.16667C2.75 48.4294 1.66667 47.3461 1.66667 45.9294V18.1794C2 18.3461 2.33333 18.4294 2.75 18.4294H21.5833H45V28.4294H41.6667C39.3333 28.4294 37.5 31.0961 37.5 33.4294C37.5 35.7628 39.3333 38.4294 41.6667 38.4294H45V48.4294ZM48.3333 36.7628H41.6667C40.4167 36.7628 39.1667 34.8461 39.1667 33.4294C39.1667 32.0128 40.4167 30.0961 41.6667 30.0961H48.3333V36.7628Z" fill="#8CBC43"/>
<path d="M7.49998 19.2628H5.83331V20.9294H7.49998V19.2628Z" fill="#8CBC43"/>
<path d="M4.16667 19.2628H2.5V20.9294H4.16667V19.2628Z" fill="#8CBC43"/>
<path d="M10.8334 19.2628H9.16669V20.9294H10.8334V19.2628Z" fill="#8CBC43"/>
<path d="M14.1667 19.2628H12.5V20.9294H14.1667V19.2628Z" fill="#8CBC43"/>
<path d="M17.5 19.2628H15.8333V20.9294H17.5V19.2628Z" fill="#8CBC43"/>
<path d="M20.8334 19.2628H19.1667V20.9294H20.8334V19.2628Z" fill="#8CBC43"/>
<path d="M24.1667 19.2628H22.5V20.9294H24.1667V19.2628Z" fill="#8CBC43"/>
<path d="M27.5 19.2628H25.8333V20.9294H27.5V19.2628Z" fill="#8CBC43"/>
<path d="M30.8334 19.2628H29.1667V20.9294H30.8334V19.2628Z" fill="#8CBC43"/>
<path d="M34.1667 19.2628H32.5V20.9294H34.1667V19.2628Z" fill="#8CBC43"/>
<path d="M37.5 19.2628H35.8333V20.9294H37.5V19.2628Z" fill="#8CBC43"/>
<path d="M40.8334 19.2628H39.1667V20.9294H40.8334V19.2628Z" fill="#8CBC43"/>
<path d="M44.1667 19.2628H42.5V20.9294H44.1667V19.2628Z" fill="#8CBC43"/>
<path d="M44.1667 22.5961H42.5V24.2627H44.1667V22.5961Z" fill="#8CBC43"/>
<path d="M44.1667 25.9294H42.5V27.5961H44.1667V25.9294Z" fill="#8CBC43"/>
<path d="M44.1667 42.5961H42.5V44.2628H44.1667V42.5961Z" fill="#8CBC43"/>
<path d="M44.1667 39.2628H42.5V40.9294H44.1667V39.2628Z" fill="#8CBC43"/>
<path d="M7.49998 45.9294H5.83331V47.5961H7.49998V45.9294Z" fill="#8CBC43"/>
<path d="M4.16667 45.9294H2.5V47.5961H4.16667V45.9294Z" fill="#8CBC43"/>
<path d="M10.8334 45.9294H9.16669V47.5961H10.8334V45.9294Z" fill="#8CBC43"/>
<path d="M14.1667 45.9294H12.5V47.5961H14.1667V45.9294Z" fill="#8CBC43"/>
<path d="M17.5 45.9294H15.8333V47.5961H17.5V45.9294Z" fill="#8CBC43"/>
<path d="M20.8334 45.9294H19.1667V47.5961H20.8334V45.9294Z" fill="#8CBC43"/>
<path d="M24.1667 45.9294H22.5V47.5961H24.1667V45.9294Z" fill="#8CBC43"/>
<path d="M27.5 45.9294H25.8333V47.5961H27.5V45.9294Z" fill="#8CBC43"/>
<path d="M30.8334 45.9294H29.1667V47.5961H30.8334V45.9294Z" fill="#8CBC43"/>
<path d="M34.1667 45.9294H32.5V47.5961H34.1667V45.9294Z" fill="#8CBC43"/>
<path d="M37.5 45.9294H35.8333V47.5961H37.5V45.9294Z" fill="#8CBC43"/>
<path d="M40.8334 45.9294H39.1667V47.5961H40.8334V45.9294Z" fill="#8CBC43"/>
<path d="M44.1667 45.9294H42.5V47.5961H44.1667V45.9294Z" fill="#8CBC43"/>
<path d="M44.1667 35.9294C45.5834 35.9294 46.6667 34.8461 46.6667 33.4294C46.6667 32.0127 45.5834 30.9294 44.1667 30.9294C42.75 30.9294 41.6667 32.0127 41.6667 33.4294C41.6667 34.8461 42.75 35.9294 44.1667 35.9294ZM44.1667 32.5961C44.6667 32.5961 45 32.9294 45 33.4294C45 33.9294 44.6667 34.2627 44.1667 34.2627C43.6667 34.2627 43.3334 33.9294 43.3334 33.4294C43.3334 32.9294 43.6667 32.5961 44.1667 32.5961Z" fill="#8CBC43"/>
<path d="M20.5928 25.3441L19.4143 26.5226L31.9064 39.0147L33.0849 37.8362L20.5928 25.3441Z" fill="#8CBC43"/>
<path d="M8.06748 23.652L6.88898 24.8305L26.0396 43.9811L27.2181 42.8026L8.06748 23.652Z" fill="#8CBC43"/>
<path d="M30.5 0.762762L30.1667 3.26276C30.0834 3.67943 30.4167 4.17943 30.9167 4.17943H31C31.4167 4.17943 31.75 3.8461 31.8334 3.42943L32.1667 0.929429C32.25 0.512762 31.9167 0.012762 31.4167 0.012762C31 -0.0705714 30.5834 0.262762 30.5 0.762762Z" fill="#8CBC43"/>
<path d="M35.4167 1.84609C35.0834 1.59609 34.5 1.59609 34.25 2.01276L32.75 4.01276C32.5 4.34609 32.5 4.84609 32.9167 5.09609C33.0834 5.17942 33.25 5.26276 33.4167 5.26276C33.6667 5.26276 33.9167 5.17942 34.0834 4.92942L35.5834 2.92942C35.8334 2.59609 35.8334 2.09609 35.4167 1.84609Z" fill="#8CBC43"/>
<path d="M35.1666 7.17943C35.25 7.17943 35.4166 7.17943 35.5 7.09609L37.8333 6.17943C38.25 6.01276 38.5 5.51276 38.25 5.09609C38.0833 4.67943 37.5833 4.42943 37.1666 4.67943L34.8333 5.59609C34.4166 5.76276 34.1666 6.26276 34.4166 6.67943C34.5 7.01276 34.8333 7.17943 35.1666 7.17943Z" fill="#8CBC43"/>
<path d="M35.25 9.76277L37.75 10.0961H37.8333C38.25 10.0961 38.5833 9.76277 38.6667 9.34611C38.75 8.92944 38.4167 8.42944 37.9167 8.42944L35.4167 8.09611C35 8.01277 34.5 8.34611 34.5 8.84611C34.5 9.34611 34.75 9.67944 35.25 9.76277Z" fill="#8CBC43"/>
</svg>
