<svg width="50" height="51" viewBox="0 0 50 51" fill="none" xmlns="http://www.w3.org/2000/svg">
<path fill-rule="evenodd" clip-rule="evenodd" d="M10.3448 9.40517L0.223276 20.9724C0.122414 21.0733 0 21.4095 0 21.5526V38.7931C0 39.269 0.386207 39.6552 0.862069 39.6552C1.33793 39.6552 1.72414 39.269 1.72414 38.7931V23.0603L30.1655 39.8207C30.5759 40.0621 31.1043 39.9259 31.3466 39.5155C31.5879 39.106 31.4509 38.5767 31.0414 38.3353L26.6983 35.7759L48.2759 23.0603C48.2759 23.0603 48.2672 48.4129 48.2526 48.4776L35.7828 41.1293C35.3724 40.8879 34.844 41.0241 34.6017 41.4345C34.3603 41.844 34.4974 42.3733 34.9069 42.6147L45.9767 49.1379H2.58621C2.11034 49.1379 1.72414 48.7517 1.72414 48.2759V42.2414C1.72414 41.7655 1.33793 41.3793 0.862069 41.3793C0.386207 41.3793 0 41.7655 0 42.2414V48.2759C0 49.7043 1.15776 50.8621 2.58621 50.8621H47.4138C48.8422 50.8621 50 49.7043 50 48.2759V21.5526C50 21.3509 49.9638 21.1603 49.7767 20.9724L39.6552 9.40517V2.58621C39.6552 1.9 39.3828 1.24224 38.8974 0.757759C38.4129 0.272414 37.7552 0 37.069 0C32.1155 0 17.8845 0 12.931 0C11.5026 0 10.3448 1.15776 10.3448 2.58621V9.40517ZM32.7586 25.2784C31.0422 27.7164 28.206 29.3103 25 29.3103C21.794 29.3103 18.9578 27.7164 17.2414 25.2784C17.2414 25.2784 17.2414 30.1931 17.2405 30.2026L25 34.775L32.7595 30.2026C32.7586 30.1931 32.7586 30.1828 32.7586 30.1724V25.2784ZM39.6552 12.0233V16.3793C39.6552 16.8552 39.269 17.2414 38.7931 17.2414C38.3172 17.2414 37.931 16.8552 37.931 16.3793V2.58621C37.931 2.35776 37.8405 2.13793 37.6784 1.97672C37.5172 1.81466 37.2974 1.72414 37.069 1.72414C32.1155 1.72414 17.8845 1.72414 12.931 1.72414C12.4552 1.72414 12.069 2.11034 12.069 2.58621V27.1552L15.5172 29.1871V8.62069C15.5172 8.14483 15.9034 7.75862 16.3793 7.75862C17.294 7.75862 18.1707 7.39569 18.8172 6.74828C19.4647 6.10172 19.8276 5.225 19.8276 4.31034C19.8276 4.0819 19.9181 3.86207 20.0802 3.70086C20.2414 3.53879 20.4612 3.44828 20.6897 3.44828C23.3224 3.44828 26.6776 3.44828 29.3103 3.44828C29.5388 3.44828 29.7586 3.53879 29.9198 3.70086C30.0819 3.86207 30.1724 4.0819 30.1724 4.31034C30.1724 5.225 30.5353 6.10172 31.1828 6.74828C31.8293 7.39569 32.706 7.75862 33.6207 7.75862C34.0966 7.75862 34.4828 8.14483 34.4828 8.62069V29.1871L37.931 27.1552V20.6897C37.931 20.2138 38.3172 19.8276 38.7931 19.8276C39.269 19.8276 39.6552 20.2138 39.6552 20.6897V26.1388L47.8043 21.3371L39.6552 12.0233ZM17.2414 19.8276C17.2414 15.5457 20.7181 12.069 25 12.069C29.2819 12.069 32.7586 15.5457 32.7586 19.8276C32.7586 24.1095 29.2819 27.5862 25 27.5862C20.7181 27.5862 17.2414 24.1095 17.2414 19.8276ZM2.19569 21.3362L10.3448 26.1388V12.0233L2.19569 21.3362ZM20.0431 18.9655C19.5672 18.9655 19.181 19.3517 19.181 19.8276C19.181 20.3034 19.5672 20.6897 20.0431 20.6897C20.0431 22.1181 21.2009 23.2759 22.6293 23.2759C22.7724 23.2759 22.9172 23.2759 23.0603 23.2759C24.4888 23.2759 25.6466 22.1181 25.6466 20.6897V18.9655C25.6466 18.4897 26.0328 18.1034 26.5086 18.1034C26.6517 18.1034 26.7966 18.1034 26.9397 18.1034C27.4155 18.1034 27.8017 18.4897 27.8017 18.9655V22.4138C27.8017 22.8897 28.1879 23.2759 28.6638 23.2759C29.1397 23.2759 29.5259 22.8897 29.5259 22.4138V20.6897H29.9569C30.4328 20.6897 30.819 20.3034 30.819 19.8276C30.819 19.3517 30.4328 18.9655 29.9569 18.9655H29.5259C29.5259 17.5371 28.3681 16.3793 26.9397 16.3793C26.7966 16.3793 26.6517 16.3793 26.5086 16.3793C25.0802 16.3793 23.9224 17.5371 23.9224 18.9655V20.6897C23.9224 21.1655 23.5362 21.5517 23.0603 21.5517C22.9172 21.5517 22.7724 21.5517 22.6293 21.5517C22.1534 21.5517 21.7672 21.1655 21.7672 20.6897V17.2414C21.7672 16.7655 21.381 16.3793 20.9052 16.3793C20.4293 16.3793 20.0431 16.7655 20.0431 17.2414V18.9655ZM32.7586 14.3767C32.7586 11.5112 32.7586 9.41034 32.7586 9.41034C31.7069 9.23276 30.7276 8.7319 29.9629 7.9681C29.1991 7.20345 28.6983 6.22414 28.5207 5.17241H21.4793C21.3017 6.22414 20.8009 7.20345 20.0371 7.9681C19.2724 8.7319 18.2931 9.23276 17.2414 9.41034V14.3767C18.9578 11.9388 21.794 10.3448 25 10.3448C28.206 10.3448 31.0422 11.9388 32.7586 14.3767Z" fill="#8CBC43"/>
</svg>
