<svg width="50" height="50" viewBox="0 0 50 50" fill="none" xmlns="http://www.w3.org/2000/svg">
<path d="M14.8564 31.0422C14.6716 31.2813 14.3347 31.3139 14.0956 31.1291C13.8565 30.9444 13.8239 30.5966 14.0087 30.3684L19.9751 22.8696C20.1599 22.6305 20.4968 22.5979 20.7359 22.7826C20.975 22.9674 21.0076 23.3043 20.8228 23.5434L14.8564 31.0422ZM18.4427 27.771C19.6708 26.2169 22.1704 26.945 22.3986 28.9012C22.6269 30.8574 20.3446 32.129 18.8014 30.9009C17.8341 30.1402 17.6711 28.7382 18.4427 27.771ZM20.0512 28.0209C19.0405 28.1296 18.6818 29.4229 19.4643 30.0532C20.2577 30.6836 21.4205 30.0424 21.3119 29.0316C21.2467 28.4013 20.6815 27.9557 20.0512 28.0209ZM12.911 23.3804C14.1391 21.8263 16.6387 22.5435 16.8669 24.5106C17.0951 26.4777 14.8129 27.7384 13.2696 26.4994C12.3024 25.7387 12.1394 24.3367 12.911 23.3804ZM14.5195 23.6303C13.5087 23.739 13.1501 25.0214 13.9435 25.6626C14.7368 26.2929 15.8997 25.6517 15.791 24.641C15.7149 23.9998 15.1498 23.5542 14.5195 23.6303ZM17.4103 18.8702C21.877 18.8702 25.5068 22.4892 25.5068 26.9559C25.5068 31.4226 21.8879 35.0524 17.4103 35.0524C15.5628 35.0524 13.8565 34.433 12.4872 33.3788V34.9872C12.4872 35.824 11.7155 36.5305 10.4657 36.9978C9.7702 37.2586 8.92251 37.4434 7.96614 37.552V43.5946H37.092V33.7374L36.4508 34.9546C36.3964 35.0633 36.3095 35.1502 36.1899 35.2046C34.5924 35.9436 33.0274 37.6281 32.0058 39.2148H34.0925C34.8097 39.2148 34.8097 40.3016 34.0925 40.3016H22.1378C21.4205 40.3016 21.4205 39.2148 22.1378 39.2148H30.4517L30.8647 38.2367C31.2559 37.2369 31.5276 36.2479 31.6581 35.3241H27.1696C26.4524 35.3241 26.4524 34.2373 27.1696 34.2373H31.7667C31.7885 33.7157 31.7667 33.2484 31.6907 32.8245C31.6689 32.7158 31.6907 32.5854 31.745 32.4876L32.8753 30.3575H27.5935C26.8762 30.3575 26.8762 29.2707 27.5935 29.2707H33.4512L37.1028 22.3696V9.15434H30.593V10.1107C30.593 10.7302 30.0931 11.2301 29.4736 11.2301H15.5954C14.9759 11.2301 14.476 10.7302 14.476 10.1107V9.15434H7.96614V14.0231C9.59631 14.2079 12.4763 14.8817 12.4872 16.5879V20.5438C13.8565 19.4897 15.5628 18.8702 17.4103 18.8702ZM11.2591 32.2051C10.9005 31.7921 10.5853 31.3356 10.3245 30.8466C7.73791 31.7486 3.24949 31.6834 1.08679 30.3466V30.7053V31.8899C1.08679 32.2268 1.58671 32.5746 2.4018 32.8789C4.45582 33.6396 7.77051 33.6505 9.87888 32.9549C10.5309 32.7376 11.02 32.4767 11.2591 32.2051ZM9.85714 29.8576C9.62892 29.2707 9.47677 28.6513 9.38982 28.0101C6.90109 28.5861 3.05387 28.4665 1.08679 27.2493V28.7925C1.08679 29.1186 1.58671 29.4772 2.4018 29.7815C4.39061 30.5205 7.69444 30.5749 9.85714 29.8576ZM9.32462 26.9233C9.32462 26.2169 9.42243 25.5322 9.59631 24.8693C7.08584 25.4996 3.10821 25.4018 1.08679 24.152V25.6952C1.08679 26.0212 1.58671 26.3799 2.4018 26.6842C4.27107 27.3797 7.21625 27.4558 9.32462 26.9233ZM10.0528 23.5977C10.4005 22.8478 10.857 22.1523 11.4004 21.5437V21.0655C9.02032 22.5327 3.45598 22.5327 1.08679 21.0655V22.6087C1.08679 22.9348 1.58671 23.2934 2.4018 23.5977C4.42322 24.3367 7.87919 24.3911 10.0528 23.5977ZM22.366 22.011C19.5839 19.2288 15.0411 19.2832 12.335 22.1414C9.71586 24.9019 9.7702 29.2381 12.4546 31.9225C15.1933 34.6612 19.6273 34.6612 22.366 31.9225C25.1047 29.1838 25.1047 24.7388 22.366 22.011ZM11.4004 33.444C8.99858 34.922 3.44511 34.9003 1.08679 33.444V34.9872C1.08679 35.6936 3.14081 36.2588 3.96677 36.3783C5.28178 36.5739 6.06426 36.6065 7.40101 36.5196C8.44432 36.4435 9.36809 36.2479 10.0854 35.9762C10.9005 35.6719 11.4004 35.3241 11.4004 34.9872V33.444ZM0 28.7925V16.5771C0 15.2077 1.94535 14.4905 3.3473 14.197V8.98045C3.3473 7.07858 4.8688 5.47014 6.77067 5.47014H14.476V4.74199C14.476 4.43769 14.6064 4.15513 14.802 3.9595C15.0085 3.76388 15.2911 3.63347 15.5954 3.63347H18.9644C19.5187 0.851298 22.942 -0.26809 25.0287 1.70986C25.5612 2.20978 25.9416 2.88359 26.0937 3.63347H29.4736C30.0822 3.63347 30.593 4.13339 30.593 4.75286V5.481H38.2983C40.2002 5.481 41.7217 7.07858 41.7217 8.99132V13.6319L44.9929 7.44808C46.0906 5.38319 49.1879 5.63315 49.8834 7.9154C50.0791 8.56747 50.0356 9.29562 49.6987 9.93682L41.7217 25.0105V45.6595C41.7217 47.5613 40.2002 49.1589 38.2983 49.1589H6.78154C4.87967 49.1589 3.35817 47.5613 3.35817 45.6595V37.3673C1.94535 37.0738 0 36.3566 0 34.9872V30.7053V28.7925ZM6.24901 15.0121C4.98834 15.0121 3.54292 15.1751 2.4018 15.599C0.652071 16.251 0.652071 16.9249 2.4018 17.5661C4.51016 18.3485 7.98787 18.3485 10.0854 17.5661C11.8351 16.914 11.8351 16.2402 10.0854 15.599C8.97685 15.186 7.55316 15.0121 6.24901 15.0121ZM4.44495 14.034C5.22744 13.9362 6.06426 13.9145 6.89022 13.9362V8.60008C6.89022 8.30664 7.12931 8.05668 7.43361 8.05668H14.4868V6.56779H6.78154C5.4774 6.56779 4.44495 7.67631 4.44495 8.99132V14.034ZM11.4004 18.1421C9.02032 19.6092 3.45598 19.6092 1.08679 18.1421V19.5114C1.08679 19.8374 1.58671 20.1961 2.4018 20.4895C4.51016 21.272 7.98787 21.272 10.0854 20.4895C10.9005 20.1961 11.4004 19.8374 11.4004 19.5114V18.1421ZM6.89022 37.6281C6.06426 37.6607 5.22744 37.6281 4.44495 37.5303V45.6486C4.44495 46.9636 5.4774 48.0612 6.78154 48.0612H38.2983C39.6025 48.0612 40.6349 46.9636 40.6349 45.6486V27.0646L38.1896 31.6834V44.1271C38.1896 44.4314 37.9505 44.6705 37.6462 44.6705H7.43361C7.12931 44.6705 6.89022 44.4314 6.89022 44.1271V37.6281ZM48.8401 8.23057C48.4271 6.88296 46.5905 6.74167 45.9493 7.95887L44.9494 9.84988L47.7316 11.3279L48.7314 9.4369C48.9271 9.04566 48.9597 8.62181 48.8401 8.23057ZM32.4514 36.8348C32.7666 36.4761 33.0926 36.1501 33.4078 35.8458C34.1251 35.172 34.8641 34.6503 35.5705 34.3025L35.8856 33.7157L33.1035 32.2485L32.7883 32.8354C32.8644 33.4331 32.8753 34.0961 32.81 34.8133C32.7883 35.3024 32.571 36.3457 32.4514 36.8348ZM38.1896 20.3048L40.6349 15.6859V8.98045C40.6349 7.66544 39.6025 6.55692 38.2983 6.55692H30.593V8.05668H37.6462C37.9505 8.05668 38.1896 8.29578 38.1896 8.60008V20.3048ZM47.2208 12.2843L44.4386 10.8063L41.6673 16.0337C41.6565 16.0554 41.6456 16.0772 41.6347 16.0989L38.1462 22.7065C38.1353 22.7283 38.1244 22.75 38.1136 22.7718L33.6143 31.2704L36.3964 32.7376L47.2208 12.2843ZM22.5399 2.57929C23.9962 2.57929 24.7352 4.35075 23.7028 5.38319C22.6703 6.41564 20.8989 5.67662 20.8989 4.22033C20.888 3.3183 21.627 2.57929 22.5399 2.57929ZM22.9312 3.83996C22.5834 3.49219 21.9857 3.74215 21.9857 4.2312C21.9857 4.72025 22.5834 4.97021 22.9312 4.62244C23.1377 4.40509 23.1377 4.04645 22.9312 3.83996ZM34.1033 14.3383C34.8206 14.3383 34.8206 15.4251 34.1033 15.4251H23.6919C22.9746 15.4251 22.9746 14.3383 23.6919 14.3383H34.1033ZM34.1033 24.2933C34.8206 24.2933 34.8206 25.38 34.1033 25.38H27.5935C26.8762 25.38 26.8762 24.2933 27.5935 24.2933H34.1033ZM34.1033 19.3158C34.8206 19.3158 34.8206 20.4026 34.1033 20.4026H25.0721C24.3549 20.4026 24.3549 19.3158 25.0721 19.3158H34.1033ZM19.4535 4.72025L15.5845 4.73112L15.5736 10.1216L15.6062 10.1542H29.4953L29.5062 10.1216L29.4953 4.74199L25.6155 4.72025C25.333 4.72025 25.0939 4.49203 25.0721 4.20946C24.9635 2.05763 22.3443 1.00345 20.7793 2.50321C20.3338 2.92706 20.0295 3.52479 19.986 4.17686C19.986 4.48116 19.7469 4.72025 19.4535 4.72025Z" fill="#8CBC43"/>
</svg>
